<svg width="16" height="16" viewBox="0 0 16 16" fill="none" xmlns="http://www.w3.org/2000/svg">
<path d="M12.1278 12.6762C12.1278 13.417 11.5273 14.0175 10.7865 14.0175C10.0458 14.0175 9.44531 13.417 9.44531 12.6762C9.44531 11.9355 10.0458 11.335 10.7865 11.335C11.5273 11.335 12.1278 11.9355 12.1278 12.6762Z" fill="#3C455D"/>
<path d="M6.76248 12.6762C6.76248 13.417 6.16199 14.0175 5.42128 14.0175C4.68057 14.0175 4.08008 13.417 4.08008 12.6762C4.08008 11.9355 4.68057 11.335 5.42128 11.335C6.16199 11.335 6.76248 11.9355 6.76248 12.6762Z" fill="#3C455D"/>
<path d="M11.8594 10.7987H5.66776C4.77609 10.7987 4.00142 10.1641 3.82656 9.28956L2.51905 2.7514H1.12951C0.981499 2.7514 0.861328 2.63123 0.861328 2.48312C0.861328 2.33502 0.981501 2.21484 1.12951 2.21484H2.73899C2.86671 2.21484 2.97664 2.30502 3.00189 2.43049L4.35279 9.18386C4.47782 9.80889 5.03089 10.2622 5.66776 10.2622H11.8594C12.0075 10.2622 12.1277 10.3823 12.1277 10.5304C12.1277 10.6786 12.0075 10.7987 11.8594 10.7987V10.7987Z" fill="#3C455D"/>
<path d="M13.1342 3.91493C13.0831 3.85754 13.0102 3.82422 12.933 3.82422H3.27609C3.12799 3.82422 3.00781 3.94439 3.00781 4.0925C3.00781 4.2406 3.12799 4.36077 3.27609 4.36077H3.32648L4.03251 8.12581C3.90802 8.14934 3.81255 8.25343 3.81255 8.38438C3.81255 8.53239 3.93273 8.65257 4.08083 8.65257H11.449C12.1239 8.65257 12.6964 8.14772 12.7801 7.4776L13.1991 4.12551C13.2087 4.04935 13.1851 3.97211 13.1341 3.91472L13.1342 3.91493Z" fill="#3C455D"/>
</svg>
