<svg width="19" height="20" viewBox="0 0 19 20" fill="none" xmlns="http://www.w3.org/2000/svg">
<path fillRule="evenodd" clipRule="evenodd" d="M5.30753 3.753C5.30753 3.753 5.3038 6.83539 5.30753 9.64373C5.30808 9.99083 5.11396 10.3116 4.8083 10.4854C4.23006 10.8145 3.62794 11.1567 3.07923 11.4681V5.25917C3.07923 3.8339 3.44583 3.35874 4.02249 2.84492C3.5008 3.14077 1.89869 4.04903 1.89869 4.04903C1.17455 4.47395 0.618602 5.16014 0.618509 6.41213C0.618509 6.41213 0.615535 10.4191 0.618509 13.4585C0.619433 14.4564 1.71824 15.0815 2.59852 14.5827L6.80208 12.1993C7.41329 11.8529 7.78944 11.2057 7.786 10.5127C7.77486 8.38515 7.78582 3.87247 7.786 2.59996C7.786 1.17483 8.13632 0.699599 8.713 0.185547C8.19122 0.48139 6.58911 1.38978 6.58911 1.38978C5.86505 1.81477 5.30771 2.5009 5.30753 3.753Z" fill="#0D2C64"/>
<path fillRule="evenodd" clipRule="evenodd" d="M17.2994 9.67857C17.2994 9.67857 14.5615 8.10823 12.0635 6.68384C11.7548 6.50775 11.5676 6.17698 11.567 5.82407C11.5659 5.15689 11.5651 4.46246 11.5648 3.82958C11.5648 3.82958 15.5872 6.13016 17.0835 6.98604C18.3504 7.71051 18.5879 8.26919 18.754 9.02901C18.754 8.42758 18.7539 6.58063 18.7539 6.58063C18.7411 5.73838 18.4113 4.90875 17.2987 4.27217C17.2987 4.27217 13.7387 2.23263 11.0358 0.690132C10.1484 0.183516 9.03906 0.81591 9.03906 1.83056V6.67679C9.03906 7.38133 9.4246 8.03562 10.0424 8.38492C11.939 9.45695 15.9444 11.7607 17.0753 12.4075C18.3422 13.132 18.5879 13.6766 18.754 14.4365C18.754 13.8349 18.7539 11.9879 18.7539 11.9879C18.7411 11.1458 18.412 10.315 17.2994 9.67857Z" fill="#0D2C64"/>
<path fillRule="evenodd" clipRule="evenodd" d="M6.04888 16.8887C6.04888 16.8887 8.73259 15.3677 11.1739 13.9761C11.4756 13.8043 11.8503 13.8088 12.1526 13.9798C12.7239 14.3034 13.3187 14.6405 13.8603 14.948C13.8603 14.948 9.9231 17.1855 8.45848 18.0177C7.21859 18.7225 6.62435 18.649 5.89268 18.4181C6.40749 18.7107 7.98791 19.6088 7.98791 19.6088C8.71474 20.0076 9.58602 20.1359 10.6752 19.517C10.6752 19.517 14.1628 17.5383 16.8054 16.0331C17.6734 15.5391 17.6752 14.306 16.8069 13.8125L12.6602 11.456C12.0573 11.1133 11.3088 11.117 10.7075 11.4627C8.86206 12.5237 4.93058 14.7457 3.82346 15.3747C2.58348 16.0793 1.99739 16.0196 1.26562 15.7889C1.78053 16.0813 3.36096 16.9794 3.36096 16.9794C4.08768 17.3781 4.95962 17.5076 6.04888 16.8887Z" fill="#0D2C64"/>
</svg>
