<svg width="72" height="72" viewBox="0 0 72 72" fill="none" xmlns="http://www.w3.org/2000/svg">
<g id="Not selected abutment">
<g clip-path="url(#clip0_3262_24456)">
<rect id="Rectangle 3376" width="72" height="72" fill="#F3F4F6"/>
<path id="Vector 297" opacity="0.7" d="M32.2271 54.2042L33.2858 55.4001H38.7121L39.5062 54.47V52.6097L40.9621 51.4138L39.9033 50.6165L40.9621 49.9522L39.9033 49.022L40.9621 48.2248L39.9033 47.2946L40.9621 46.4974L39.9033 45.5672L40.9621 44.77L39.9033 43.9727L40.9621 43.0426V37.196H43.212L43.0796 36.0001C43.1237 35.8229 43.3179 35.3623 43.7414 34.9371C44.1649 34.5119 44.8884 32.8111 45.1972 32.0138C45.1531 28.8248 45.0913 21.9152 45.1972 19.7891C45.3031 17.6631 43.0355 16.7773 41.8885 16.6001H30.2418C27.8066 16.6001 26.9331 18.4604 26.8008 19.3905V31.748C26.8008 33.0237 28.036 34.8485 28.6537 35.6015V37.196H30.9036V42.5111L31.3006 43.1754L31.0359 43.9727L31.9624 44.77L30.9036 45.5672L31.9624 46.4974L30.9036 47.2946L32.0947 48.2248L30.9036 49.022L32.0947 49.9522L30.7712 50.6165L31.9624 51.4138L31.5653 51.9453L32.3594 52.6097L32.2271 54.2042Z" fill="#BBC1D3"/>
<path id="?" d="M35.153 27.8507L35.148 27.5662C35.1313 27.3341 35.1513 27.1264 35.2079 26.9433C35.2645 26.7602 35.3611 26.5951 35.4976 26.448C35.6375 26.2975 35.8206 26.1569 36.0471 26.0262C36.2635 25.8986 36.4317 25.7826 36.5515 25.6779C36.6747 25.5733 36.7613 25.4638 36.8113 25.3493C36.8612 25.2349 36.8862 25.1008 36.8862 24.9471V24.9422C36.8862 24.782 36.8462 24.6431 36.7663 24.5253C36.6864 24.4044 36.5748 24.3095 36.4317 24.2409C36.2918 24.1722 36.127 24.1379 35.9372 24.1379C35.7474 24.1379 35.5809 24.1755 35.4377 24.2507C35.2945 24.3259 35.1813 24.4289 35.098 24.5597C35.0148 24.6905 34.9682 24.8409 34.9582 25.0109L34.9532 25.0501H33.5996V25.0011C33.6129 24.6185 33.7145 24.2768 33.9043 23.976C34.0974 23.6719 34.3721 23.4332 34.7284 23.2599C35.0847 23.0866 35.5176 23 36.0271 23C36.5033 23 36.9178 23.0801 37.2708 23.2403C37.6271 23.4005 37.9035 23.6229 38.0999 23.9074C38.2997 24.1918 38.3996 24.5221 38.3996 24.8981V24.903C38.3996 25.1482 38.3597 25.3706 38.2797 25.57C38.1998 25.7695 38.0799 25.951 37.9201 26.1144C37.7636 26.2747 37.5671 26.4234 37.3307 26.5608C37.111 26.685 36.9395 26.8011 36.8163 26.909C36.6931 27.0136 36.6065 27.1248 36.5565 27.2425C36.5066 27.3569 36.4816 27.4926 36.4816 27.6496V27.8507H35.153ZM35.8373 30.2C35.6108 30.2 35.4177 30.1264 35.2579 29.9793C35.1014 29.8289 35.0231 29.6458 35.0231 29.43C35.0231 29.2142 35.1014 29.0327 35.2579 28.8856C35.4177 28.7351 35.6108 28.6599 35.8373 28.6599C36.067 28.6599 36.2602 28.7351 36.4167 28.8856C36.5765 29.0327 36.6564 29.2142 36.6564 29.43C36.6564 29.6458 36.5765 29.8289 36.4167 29.9793C36.2602 30.1264 36.067 30.2 35.8373 30.2Z" fill="#9096A9"/>
</g>
</g>
<defs>
<clipPath id="clip0_3262_24456">
<rect width="72" height="72" rx="8" fill="white"/>
</clipPath>
</defs>
</svg>
